{
  "asset": {
    "generator": "Khronos glTF Blender I/O v1.6.16",
    "version": "2.0"
  },
  "scene": 0,
  "scenes": [
    {
      "name": "Scene",
      "nodes": [
        0
      ]
    }
  ],
  "nodes": [
    {
      "mesh": 0,
      "name": "wheelchair_01"
    }
  ],
  "materials": [
    {
      "doubleSided": true,
      "name": "lambert1",
      "normalTexture": {
        "index": 0
      },
      "pbrMetallicRoughness": {
        "baseColorTexture": {
          "index": 1
        },
        "metallicRoughnessTexture": {
          "index": 2
        }
      }
    }
  ],
  "meshes": [
    {
      "name": "BakeGroup1_Low",
      "primitives": [
        {
          "attributes": {
            "POSITION": 0,
            "NORMAL": 1,
            "TEXCOORD_0": 2
          },
          "indices": 3,
          "material": 0
        }
      ]
    }
  ],
  "textures": [
    {
      "sampler": 0,
      "source": 0
    },
    {
      "sampler": 0,
      "source": 1
    },
    {
      "sampler": 0,
      "source": 2
    }
  ],
  "images": [
    {
      "mimeType": "image/jpeg",
      "name": "wheelchair_01_nor_gl",
      "uri": "textures/wheelchair_01_nor_gl_1k.jpg"
    },
    {
      "mimeType": "image/jpeg",
      "name": "wheelchair_01_diff.png",
      "uri": "textures/wheelchair_01_diff_1k.jpg"
    },
    {
      "mimeType": "image/jpeg",
      "name": "wheelchair_01_metal.png-wheelchair_01_rough.png",
      "uri": "textures/wheelchair_01_arm_1k.jpg"
    }
  ],
  "accessors": [
    {
      "bufferView": 0,
      "componentType": 5126,
      "count": 29445,
      "max": [
        0.4103996157646179,
        1.1092802286148071,
        0.6051971316337585
      ],
      "min": [
        -0.41369134187698364,
        0.005778669845312834,
        -0.4856697618961334
      ],
      "type": "VEC3"
    },
    {
      "bufferView": 1,
      "componentType": 5126,
      "count": 29445,
      "type": "VEC3"
    },
    {
      "bufferView": 2,
      "componentType": 5126,
      "count": 29445,
      "type": "VEC2"
    },
    {
      "bufferView": 3,
      "componentType": 5123,
      "count": 120756,
      "type": "SCALAR"
    }
  ],
  "bufferViews": [
    {
      "buffer": 0,
      "byteLength": 353340,
      "byteOffset": 0
    },
    {
      "buffer": 0,
      "byteLength": 353340,
      "byteOffset": 353340
    },
    {
      "buffer": 0,
      "byteLength": 235560,
      "byteOffset": 706680
    },
    {
      "buffer": 0,
      "byteLength": 241512,
      "byteOffset": 942240
    }
  ],
  "samplers": [
    {
      "magFilter": 9729,
      "minFilter": 9987
    }
  ],
  "buffers": [
    {
      "byteLength": 1183752,
      "uri": "wheelchair_01.bin"
    }
  ]
}