{
  "asset": {
    "generator": "Khronos glTF Blender I/O v1.6.16",
    "version": "2.0"
  },
  "scene": 0,
  "scenes": [
    {
      "name": "Scene",
      "nodes": [
        0
      ]
    }
  ],
  "nodes": [
    {
      "mesh": 0,
      "name": "ceramic_vase_02"
    }
  ],
  "materials": [
    {
      "doubleSided": true,
      "name": "ceramic_vase_02",
      "normalTexture": {
        "index": 0
      },
      "pbrMetallicRoughness": {
        "baseColorTexture": {
          "index": 1
        },
        "metallicFactor": 0,
        "metallicRoughnessTexture": {
          "index": 2
        }
      }
    }
  ],
  "meshes": [
    {
      "name": "Cylinder.003",
      "primitives": [
        {
          "attributes": {
            "POSITION": 0,
            "NORMAL": 1,
            "TEXCOORD_0": 2
          },
          "indices": 3,
          "material": 0
        }
      ]
    }
  ],
  "textures": [
    {
      "sampler": 0,
      "source": 0
    },
    {
      "sampler": 0,
      "source": 1
    },
    {
      "sampler": 0,
      "source": 2
    }
  ],
  "images": [
    {
      "mimeType": "image/jpeg",
      "name": "ceramic_vase_02_nor_gl",
      "uri": "textures/ceramic_vase_02_nor_gl_1k.jpg"
    },
    {
      "mimeType": "image/jpeg",
      "name": "ceramic_vase_02_diff",
      "uri": "textures/ceramic_vase_02_diff_1k.jpg"
    },
    {
      "mimeType": "image/jpeg",
      "name": "ceramic_vase_02_rough",
      "uri": "textures/ceramic_vase_02_rough_1k.jpg"
    }
  ],
  "accessors": [
    {
      "bufferView": 0,
      "componentType": 5126,
      "count": 7094,
      "max": [
        0.10918987542390823,
        0.3103283941745758,
        0.10919087380170822
      ],
      "min": [
        -0.10918986052274704,
        0.0011435861233621836,
        -0.10919084399938583
      ],
      "type": "VEC3"
    },
    {
      "bufferView": 1,
      "componentType": 5126,
      "count": 7094,
      "type": "VEC3"
    },
    {
      "bufferView": 2,
      "componentType": 5126,
      "count": 7094,
      "type": "VEC2"
    },
    {
      "bufferView": 3,
      "componentType": 5123,
      "count": 33384,
      "type": "SCALAR"
    }
  ],
  "bufferViews": [
    {
      "buffer": 0,
      "byteLength": 85128,
      "byteOffset": 0
    },
    {
      "buffer": 0,
      "byteLength": 85128,
      "byteOffset": 85128
    },
    {
      "buffer": 0,
      "byteLength": 56752,
      "byteOffset": 170256
    },
    {
      "buffer": 0,
      "byteLength": 66768,
      "byteOffset": 227008
    }
  ],
  "samplers": [
    {
      "magFilter": 9729,
      "minFilter": 9987
    }
  ],
  "buffers": [
    {
      "byteLength": 293776,
      "uri": "ceramic_vase_02.bin"
    }
  ]
}