{
  "asset": {
    "generator": "Khronos glTF Blender I/O v3.2.40",
    "version": "2.0"
  },
  "scene": 0,
  "scenes": [
    {
      "name": "Scene",
      "nodes": [
        0,
        1
      ]
    }
  ],
  "nodes": [
    {
      "mesh": 0,
      "name": "pot_enamel_01_lid"
    },
    {
      "mesh": 1,
      "name": "pot_enamel_01_base"
    }
  ],
  "materials": [
    {
      "doubleSided": true,
      "name": "pot_enamel_01",
      "normalTexture": {
        "index": 0
      },
      "pbrMetallicRoughness": {
        "baseColorTexture": {
          "index": 1
        },
        "metallicRoughnessTexture": {
          "index": 2
        }
      }
    }
  ],
  "meshes": [
    {
      "name": "Cylinder.001",
      "primitives": [
        {
          "attributes": {
            "POSITION": 0,
            "NORMAL": 1,
            "TEXCOORD_0": 2
          },
          "indices": 3,
          "material": 0
        }
      ]
    },
    {
      "name": "Cube.001",
      "primitives": [
        {
          "attributes": {
            "POSITION": 4,
            "NORMAL": 5,
            "TEXCOORD_0": 6
          },
          "indices": 7,
          "material": 0
        }
      ]
    }
  ],
  "textures": [
    {
      "sampler": 0,
      "source": 0
    },
    {
      "sampler": 0,
      "source": 1
    },
    {
      "sampler": 0,
      "source": 2
    }
  ],
  "images": [
    {
      "mimeType": "image/jpeg",
      "name": "pot_enamel_01_nor_gl",
      "uri": "textures/pot_enamel_01_nor_gl_1k.jpg"
    },
    {
      "mimeType": "image/jpeg",
      "name": "pot_enamel_01_diff",
      "uri": "textures/pot_enamel_01_diff_1k.jpg"
    },
    {
      "mimeType": "image/jpeg",
      "name": "pot_enamel_01_metal-pot_enamel_01_rough",
      "uri": "textures/pot_enamel_01_arm_1k.jpg"
    }
  ],
  "accessors": [
    {
      "bufferView": 0,
      "componentType": 5126,
      "count": 1861,
      "max": [
        0.09023720771074295,
        0.17840638756752014,
        0.09023720771074295
      ],
      "min": [
        -0.09023720771074295,
        0.12897279858589172,
        -0.09023720771074295
      ],
      "type": "VEC3"
    },
    {
      "bufferView": 1,
      "componentType": 5126,
      "count": 1861,
      "type": "VEC3"
    },
    {
      "bufferView": 2,
      "componentType": 5126,
      "count": 1861,
      "type": "VEC2"
    },
    {
      "bufferView": 3,
      "componentType": 5123,
      "count": 9984,
      "type": "SCALAR"
    },
    {
      "bufferView": 4,
      "componentType": 5126,
      "count": 4450,
      "max": [
        0.13146506249904633,
        0.13169820606708527,
        0.09021023660898209
      ],
      "min": [
        -0.13146506249904633,
        0.00014360249042510986,
        -0.09021023660898209
      ],
      "type": "VEC3"
    },
    {
      "bufferView": 5,
      "componentType": 5126,
      "count": 4450,
      "type": "VEC3"
    },
    {
      "bufferView": 6,
      "componentType": 5126,
      "count": 4450,
      "type": "VEC2"
    },
    {
      "bufferView": 7,
      "componentType": 5123,
      "count": 24264,
      "type": "SCALAR"
    }
  ],
  "bufferViews": [
    {
      "buffer": 0,
      "byteLength": 22332,
      "byteOffset": 0
    },
    {
      "buffer": 0,
      "byteLength": 22332,
      "byteOffset": 22332
    },
    {
      "buffer": 0,
      "byteLength": 14888,
      "byteOffset": 44664
    },
    {
      "buffer": 0,
      "byteLength": 19968,
      "byteOffset": 59552
    },
    {
      "buffer": 0,
      "byteLength": 53400,
      "byteOffset": 79520
    },
    {
      "buffer": 0,
      "byteLength": 53400,
      "byteOffset": 132920
    },
    {
      "buffer": 0,
      "byteLength": 35600,
      "byteOffset": 186320
    },
    {
      "buffer": 0,
      "byteLength": 48528,
      "byteOffset": 221920
    }
  ],
  "samplers": [
    {
      "magFilter": 9729,
      "minFilter": 9987
    }
  ],
  "buffers": [
    {
      "byteLength": 270448,
      "uri": "pot_enamel_01.bin"
    }
  ]
}