{
  "asset": {
    "generator": "Khronos glTF Blender I/O v5.1.20",
    "version": "2.0"
  },
  "scene": 0,
  "scenes": [
    {
      "name": "Scene",
      "nodes": [
        0
      ]
    }
  ],
  "nodes": [
    {
      "mesh": 0,
      "name": "vintage_electric_kettle"
    }
  ],
  "materials": [
    {
      "doubleSided": true,
      "name": "vintage_electric_kettle",
      "normalTexture": {
        "index": 0
      },
      "pbrMetallicRoughness": {
        "baseColorTexture": {
          "index": 1
        },
        "metallicRoughnessTexture": {
          "index": 2
        }
      }
    },
    {
      "alphaMode": "BLEND",
      "doubleSided": true,
      "name": "vintage_electric_kettle_glass",
      "normalTexture": {
        "index": 3
      },
      "pbrMetallicRoughness": {
        "baseColorTexture": {
          "index": 4
        },
        "metallicRoughnessTexture": {
          "index": 5
        }
      }
    }
  ],
  "meshes": [
    {
      "name": "Circle.012",
      "primitives": [
        {
          "attributes": {
            "POSITION": 0,
            "NORMAL": 1,
            "TEXCOORD_0": 2
          },
          "indices": 3,
          "material": 0
        },
        {
          "attributes": {
            "POSITION": 4,
            "NORMAL": 5,
            "TEXCOORD_0": 6
          },
          "indices": 7,
          "material": 1
        }
      ]
    }
  ],
  "textures": [
    {
      "sampler": 0,
      "source": 0
    },
    {
      "sampler": 0,
      "source": 1
    },
    {
      "sampler": 0,
      "source": 2
    },
    {
      "sampler": 0,
      "source": 0
    },
    {
      "sampler": 0,
      "source": 3
    },
    {
      "sampler": 0,
      "source": 2
    }
  ],
  "images": [
    {
      "mimeType": "image/jpeg",
      "name": "vintage_electric_kettle_nor_gl",
      "uri": "textures/vintage_electric_kettle_nor_gl_1k.jpg"
    },
    {
      "mimeType": "image/jpeg",
      "name": "vintage_electric_kettle_diff",
      "uri": "textures/vintage_electric_kettle_diff_1k.jpg"
    },
    {
      "mimeType": "image/jpeg",
      "name": "vintage_electric_kettle_metal-vintage_electric_kettle_rough",
      "uri": "textures/vintage_electric_kettle_arm_1k.jpg"
    },
    {
      "mimeType": "image/jpeg",
      "name": "vintage_electric_kettle_diff-vintage_electric_kettle_alpha",
      "uri": "textures/vintage_electric_kettle_diff_1k.jpg"
    }
  ],
  "accessors": [
    {
      "bufferView": 0,
      "componentType": 5126,
      "count": 10130,
      "max": [
        0.15594080090522766,
        0.3047400116920471,
        0.12427651882171631
      ],
      "min": [
        -0.1649499237537384,
        0,
        -0.12427651882171631
      ],
      "type": "VEC3"
    },
    {
      "bufferView": 1,
      "componentType": 5126,
      "count": 10130,
      "type": "VEC3"
    },
    {
      "bufferView": 2,
      "componentType": 5126,
      "count": 10130,
      "type": "VEC2"
    },
    {
      "bufferView": 3,
      "componentType": 5123,
      "count": 43950,
      "type": "SCALAR"
    },
    {
      "bufferView": 4,
      "componentType": 5126,
      "count": 107,
      "max": [
        0.02403569221496582,
        0.15681399405002594,
        0.09564647078514099
      ],
      "min": [
        -0.024035699665546417,
        0.1082400530576706,
        0.08353707939386368
      ],
      "type": "VEC3"
    },
    {
      "bufferView": 5,
      "componentType": 5126,
      "count": 107,
      "type": "VEC3"
    },
    {
      "bufferView": 6,
      "componentType": 5126,
      "count": 107,
      "type": "VEC2"
    },
    {
      "bufferView": 7,
      "componentType": 5123,
      "count": 564,
      "type": "SCALAR"
    }
  ],
  "bufferViews": [
    {
      "buffer": 0,
      "byteLength": 121560,
      "byteOffset": 0,
      "target": 34962
    },
    {
      "buffer": 0,
      "byteLength": 121560,
      "byteOffset": 121560,
      "target": 34962
    },
    {
      "buffer": 0,
      "byteLength": 81040,
      "byteOffset": 243120,
      "target": 34962
    },
    {
      "buffer": 0,
      "byteLength": 87900,
      "byteOffset": 324160,
      "target": 34963
    },
    {
      "buffer": 0,
      "byteLength": 1284,
      "byteOffset": 412060,
      "target": 34962
    },
    {
      "buffer": 0,
      "byteLength": 1284,
      "byteOffset": 413344,
      "target": 34962
    },
    {
      "buffer": 0,
      "byteLength": 856,
      "byteOffset": 414628,
      "target": 34962
    },
    {
      "buffer": 0,
      "byteLength": 1128,
      "byteOffset": 415484,
      "target": 34963
    }
  ],
  "samplers": [
    {
      "magFilter": 9729,
      "minFilter": 9987
    }
  ],
  "buffers": [
    {
      "byteLength": 416612,
      "uri": "vintage_electric_kettle.bin"
    }
  ]
}